<?xml version="1.0" encoding="UTF-8" standalone="no"?>
<!-- Created with Inkscape (http://www.inkscape.org/) -->

<svg
   width="207.755mm"
   height="13.5636mm"
   viewBox="0 0 207.755 13.5636"
   version="1.1"
   id="svg1"
   xmlns="http://www.w3.org/2000/svg"
   xmlns:svg="http://www.w3.org/2000/svg">
  <defs
     id="defs1" />
  <g
     id="layer1"
     style="fill:#ffffff"
     transform="translate(-0.69907874,-4.5517978)">
    <path
       d="M 6.2261875,68.339646 H 58.770187 c 1.536,0 2.944001,-0.448 4.288001,-1.28 1.536,-0.96 2.623999,-2.24 3.199999,-3.84 l 7.68,-21.12 c 0.320001,-0.832 0.448001,-1.6 0.448001,-2.304 0,-2.24 -1.216001,-3.328 -3.584,-3.328 h -32.512 l 2.943999,-8.064 h 37.504 c 0.704001,-1.984 1.088001,-3.776 1.088001,-5.248 0,-3.968 -2.304001,-5.952 -6.912001,-5.952 h -43.264 c -6.592,0 -11.264,3.712 -13.951999,11.136 l -7.0400005,19.328 H 60.754187 l -3.519999,9.536 h -46.976 c -4.0960005,0 -7.6160005,4.288 -7.6160005,7.808 0,2.24 1.216,3.328 3.584,3.328 z m 81.2800335,-0.064 h 12.543999 c 5.312,0 9.024,-2.944 11.2,-8.832 l 8.384,-23.04 h 15.552 c 0.576,-1.6 0.896,-3.072 0.896,-4.224 0,-3.2 -1.856,-4.736 -5.568,-4.736 H 95.826221 c -5.312,0 -8.96,2.944 -11.2,8.96 h 14.528 l -0.192,0.384 z m 53.823979,-31.808 -11.648,31.872 h 46.4 c 1.6,0 3.072,-0.704 4.352,-2.176 1.152,-1.28 1.728,-2.688 1.728,-4.096 0,-1.792 -0.96,-2.688 -2.88,-2.688 h -25.92 l 2.56,-6.912 h 18.816 c 1.664,0 3.072,-0.704 4.352,-2.176 1.152,-1.28 1.728,-2.688 1.728,-4.096 0,-1.792 -0.96,-2.688 -2.88,-2.688 h -18.752 l 2.56,-7.04 h 30.016 c 0.576,-1.6 0.896,-3.008 0.896,-4.16 0,-3.2 -1.856,-4.8 -5.504,-4.8 h -34.688 c -5.312,0 -8.96,3.008 -11.136,8.96 z m 54.91195,0.128 -11.584,31.744 h 46.336 c 1.6,0 3.072,-0.704 4.352,-2.176 1.152,-1.28 1.728,-2.688 1.728,-4.096 0,-1.792 -0.96,-2.688 -2.88,-2.688 h -25.792 l 11.52,-31.68 h -12.544 c -5.248,0 -8.96,2.944 -11.136,8.896 z m 55.61597,0 -11.584,31.744 h 46.336 c 1.6,0 3.072,-0.704 4.352,-2.176 1.152,-1.28 1.728,-2.688 1.728,-4.096 0,-1.792 -0.96,-2.688 -2.88,-2.688 h -25.792 l 11.52,-31.68 h -12.544 c -5.248,0 -8.96,2.944 -11.136,8.896 z m 55.74397,-0.256 -11.712,32 h 12.544 c 5.312,0 9.024,-2.944 11.2,-8.896 l 8.384,-23.04 h 15.232 c 2.944,0 4.352,0.96 4.352,2.88 0,0.704 -0.192,1.536 -0.576,2.56 l -1.984,5.504 h -11.84 c -3.328,0 -6.144,3.456 -6.144,6.272 0,1.792 0.96,2.688 2.816,2.688 h 11.968 l -2.944,7.936 c -0.192,0.512 -0.256,0.96 -0.256,1.408 0,1.792 1.088,2.688 3.264,2.688 1.216,0 2.368,-0.32 3.392,-1.024 1.216,-0.768 2.048,-1.792 2.496,-3.072 l 8.192,-22.336 c 0.96,-2.688 1.472,-4.992 1.472,-6.912 0,-5.056 -3.712,-7.552 -11.008,-7.552 h -27.776 c -5.248,0 -8.896,2.944 -11.072,8.896 z m 86.39997,32.128 c 2.88,0 6.656,-3.264 6.656,-6.016 0,-0.576 -0.128,-1.088 -0.384,-1.536 l -3.904,-6.208 h 5.696 c 2.368,0 4.992,-1.472 5.952,-4.16 l 3.136,-8.576 c 0.96,-2.688 1.472,-4.992 1.472,-6.912 0,-5.056 -3.712,-7.552 -11.008,-7.552 h -27.776 c -5.248,0 -9.024,2.944 -11.136,8.896 l -11.648,31.872 h 12.544 c 5.312,0 9.024,-2.944 11.2,-8.896 l 8.32,-22.912 h 15.296 c 2.944,0 4.352,0.96 4.352,2.88 0,0.704 -0.192,1.6 -0.576,2.624 l -1.344,3.776 h -11.968 c -3.264,0 -6.144,3.392 -6.144,6.272 0,0.64 0.192,1.28 0.512,1.792 l 8.384,13.44 c 0.512,0.832 1.28,1.216 2.368,1.216 z m 54.01592,-40.128 -14.592,40.128 h 15.68 c 6.592,0 11.264,-3.712 13.952,-11.136 l 10.496,-28.928 h 19.2 c 3.648,0 5.44,1.216 5.44,3.584 0,0.896 -0.256,1.984 -0.704,3.264 l -1.728,4.8 h -14.976 c -4.096,0 -7.68,4.288 -7.68,7.872 0,2.24 1.216,3.328 3.584,3.328 h 20.544 c 3.008,0 6.208,-1.856 7.424,-5.184 l 3.968,-10.752 c 1.216,-3.392 1.792,-6.272 1.792,-8.64 0,-6.336 -4.544,-9.472 -13.696,-9.472 h -34.752 c -6.592,0 -11.264,3.712 -13.952,11.136 z m 67.71204,8 -11.712,32 h 12.544 c 5.312,0 9.024,-2.944 11.2,-8.896 l 8.384,-23.04 h 15.232 c 2.944,0 4.352,0.96 4.352,2.88 0,0.704 -0.192,1.536 -0.576,2.56 l -1.984,5.504 h -11.84 c -3.328,0 -6.144,3.456 -6.144,6.272 0,1.792 0.96,2.688 2.816,2.688 h 11.968 l -2.944,7.936 c -0.192,0.512 -0.256,0.96 -0.256,1.408 0,1.792 1.088,2.688 3.264,2.688 1.216,0 2.368,-0.32 3.392,-1.024 1.216,-0.768 2.048,-1.792 2.496,-3.072 l 8.192,-22.336 c 0.96,-2.688 1.472,-4.992 1.472,-6.912 0,-5.056 -3.712,-7.552 -11.008,-7.552 h -27.776 c -5.248,0 -8.896,2.944 -11.072,8.896 z m 55.16797,0 -11.712,32.128 h 12.544 c 5.312,0 9.024,-2.944 11.2,-8.896 l 8.384,-23.168 h 15.36 c 2.88,0 4.352,0.96 4.352,2.88 0,0.704 -0.192,1.6 -0.576,2.624 l -1.408,3.84 h -11.968 c -3.264,0 -6.144,3.392 -6.144,6.272 0,1.792 0.96,2.688 2.88,2.688 h 16.448 c 2.368,0 4.992,-1.472 5.952,-4.16 l 3.136,-8.576 c 1.024,-2.752 1.472,-5.056 1.472,-6.912 0,-5.056 -3.648,-7.616 -11.008,-7.616 h -27.776 c -5.312,0 -9.024,3.008 -11.136,8.896 z m 55.16805,0.128 -11.648,31.872 h 46.4 c 1.6,0 3.072,-0.704 4.352,-2.176 1.152,-1.28 1.728,-2.688 1.728,-4.096 0,-1.792 -0.96,-2.688 -2.88,-2.688 h -25.92 l 2.56,-6.912 h 18.816 c 1.664,0 3.072,-0.704 4.352,-2.176 1.152,-1.28 1.728,-2.688 1.728,-4.096 0,-1.792 -0.96,-2.688 -2.88,-2.688 h -18.752 l 2.56,-7.04 h 30.016 c 0.576,-1.6 0.896,-3.008 0.896,-4.16 0,-3.2 -1.856,-4.8 -5.504,-4.8 h -34.688 c -5.312,0 -8.96,3.008 -11.136,8.96 z m 86.27195,32 c 2.88,0 6.656,-3.264 6.656,-6.016 0,-0.576 -0.128,-1.088 -0.384,-1.536 l -3.904,-6.208 h 5.696 c 2.368,0 4.992,-1.472 5.952,-4.16 l 3.136,-8.576 c 0.96,-2.688 1.472,-4.992 1.472,-6.912 0,-5.056 -3.712,-7.552 -11.008,-7.552 h -27.776 c -5.248,0 -9.024,2.944 -11.136,8.896 l -11.648,31.872 h 12.544 c 5.312,0 9.024,-2.944 11.2,-8.896 l 8.32,-22.912 h 15.296 c 2.944,0 4.352,0.96 4.352,2.88 0,0.704 -0.192,1.6 -0.576,2.624 l -1.344,3.776 h -11.968 c -3.264,0 -6.144,3.392 -6.144,6.272 0,0.64 0.192,1.28 0.512,1.792 l 8.384,13.44 c 0.512,0.832 1.28,1.216 2.368,1.216 z m 16.63997,-0.128 h 42.048 c 1.216,0 2.368,-0.32 3.456,-1.024 1.216,-0.768 2.112,-1.792 2.56,-3.072 l 6.144,-16.896 c 0.256,-0.64 0.32,-1.28 0.32,-1.856 0,-1.792 -0.96,-2.624 -2.816,-2.624 h -26.048 l 2.368,-6.464 h 30.016 c 0.576,-1.6 0.832,-3.008 0.832,-4.224 0,-3.136 -1.792,-4.736 -5.504,-4.736 h -34.624 c -5.248,0 -8.96,2.944 -11.136,8.896 l -5.632,15.488 h 41.664 l -2.816,7.616 h -37.568 c -3.264,0 -6.08,3.456 -6.08,6.208 0,1.792 0.96,2.688 2.816,2.688 z"
       id="text3"
       style="font-size:64px;font-family:KHGummi;-inkscape-font-specification:KHGummi;white-space:pre;fill:#ffffff"
       transform="scale(0.26458333)"
       aria-label="Stellar Papers" />
  </g>
</svg>
